<svg width="348" height="55" viewBox="0 0 348 55" version="1.1" xmlns="http://www.w3.org/2000/svg" xmlns:xlink="http://www.w3.org/1999/xlink">
<title>Group</title>
<desc>Created using Figma</desc>
<g id="Canvas" transform="translate(723 761)">
<g id="Group">
<g id="Rectangle 3">
<use xlink:href="#path0_fill" transform="translate(-557 -753)" fill="#FFFFFF" fill-opacity="0.4"/>
</g>
<g id="Championship Sappige mannetjes">
<use xlink:href="#path1_fill" transform="translate(-542 -753)" fill="#FFB500"/>
</g>
<g id="rocket-league-logo">
<g id="path4">
<use xlink:href="#path2_fill" transform="translate(-719.2 -758)"/>
</g>
<g id="Horizontal Text">
<use xlink:href="#path3_fill" transform="translate(-664.5 -752.8)" fill="#FFFFFF"/>
</g>
<g id="Symbol 2">
<g id="path7">
<use xlink:href="#path4_fill" transform="translate(-723 -761)" fill="#FFFFFF"/>
</g>
<g id="path22">
<use xlink:href="#path2_fill" transform="translate(-719.2 -758)" fill="url(#paint5_radial)"/>
</g>
<g id="path24" opacity="0.4">
<use xlink:href="#path5_fill" transform="translate(-694.1 -752.1)"/>
</g>
<g id="path31" opacity="0.4">
<use xlink:href="#path6_fill" transform="translate(-706.9 -758)" fill="#FFFFFF"/>
</g>
<g id="circle40">
<use xlink:href="#path7_fill" transform="translate(-720.5 -758.6)" fill="url(#paint8_radial)"/>
</g>
</g>
</g>
</g>
</g>
<defs>
<radialGradient id="paint5_radial" cx="0.5" cy="0.5" r="0.5" gradientUnits="userSpaceOnUse" gradientTransform="matrix(95.552 0 0 -95.552 -43.049 53.214)">
<stop offset="0" stop-color="#00AEFF"/>
<stop offset="0.131" stop-color="#00A5F7"/>
<stop offset="0.345" stop-color="#008DE0"/>
<stop offset="0.616" stop-color="#0065BA"/>
<stop offset="0.928" stop-color="#002F87"/>
<stop offset="1" stop-color="#00217A"/>
</radialGradient>
<radialGradient id="paint8_radial" cx="0.5" cy="0.5" r="0.5" gradientUnits="userSpaceOnUse" gradientTransform="matrix(16.572 0 0 -16.572 -3.757 11.987)">
<stop offset="0" stop-color="#FFFFFF"/>
<stop offset="0.679" stop-color="#7A7A7A"/>
<stop offset="1" stop-color="#404040"/>
</radialGradient>
<path id="path0_fill" d="M 0 0L 1 0L 1 38L 0 38L 0 0Z"/>
<path id="path1_fill" d="M 9.952 8.968C 9.22667 8.08267 8.33067 7.64 7.264 7.64C 6.79467 7.64 6.35733 7.72533 5.952 7.896C 5.55733 8.06667 5.216 8.30133 4.928 8.6C 4.64 8.888 4.41067 9.23467 4.24 9.64C 4.08 10.0453 4 10.4827 4 10.952C 4 11.432 4.08 11.8747 4.24 12.28C 4.41067 12.6853 4.64 13.0373 4.928 13.336C 5.22667 13.6347 5.57333 13.8693 5.968 14.04C 6.36267 14.2107 6.78933 14.296 7.248 14.296C 8.25067 14.296 9.152 13.8693 9.952 13.016L 9.952 16.728L 9.632 16.84C 9.152 17.0107 8.704 17.1333 8.288 17.208C 7.872 17.2933 7.46133 17.336 7.056 17.336C 6.224 17.336 5.424 17.1813 4.656 16.872C 3.89867 16.552 3.22667 16.1093 2.64 15.544C 2.064 14.968 1.6 14.2907 1.248 13.512C 0.896 12.7227 0.72 11.864 0.72 10.936C 0.72 10.008 0.890667 9.16 1.232 8.392C 1.584 7.61333 2.048 6.94667 2.624 6.392C 3.21067 5.82667 3.888 5.38933 4.656 5.08C 5.424 4.76 6.22933 4.6 7.072 4.6C 7.552 4.6 8.02133 4.65333 8.48 4.76C 8.94933 4.856 9.44 5.01067 9.952 5.224L 9.952 8.968ZM 14.6275 9.592L 19.1555 9.592L 19.1555 4.936L 22.2915 4.936L 22.2915 17L 19.1555 17L 19.1555 12.024L 14.6275 12.024L 14.6275 17L 11.4915 17L 11.4915 4.936L 14.6275 4.936L 14.6275 9.592ZM 30.4196 12.52L 29.0116 8.504L 27.6036 12.52L 30.4196 12.52ZM 31.2516 14.904L 26.7716 14.904L 26.0516 17L 22.7076 17L 27.2996 4.936L 30.7236 4.936L 35.3156 17L 31.9716 17L 31.2516 14.904ZM 35.1837 17L 37.2317 4.936L 40.3357 4.936L 42.7517 11.368L 45.1517 4.936L 48.2557 4.936L 50.3037 17L 47.1837 17L 46.1437 10.056L 43.2957 17L 42.0477 17L 39.3437 10.056L 38.3037 17L 35.1837 17ZM 54.4662 10.472L 55.5062 10.472C 56.6582 10.472 57.2343 9.97067 57.2343 8.968C 57.2343 7.96533 56.6582 7.464 55.5062 7.464L 54.4662 7.464L 54.4662 10.472ZM 54.4662 17L 51.3302 17L 51.3302 4.936L 56.3222 4.936C 57.6769 4.936 58.7116 5.288 59.4262 5.992C 60.1516 6.696 60.5142 7.688 60.5142 8.968C 60.5142 10.248 60.1516 11.24 59.4262 11.944C 58.7116 12.648 57.6769 13 56.3222 13L 54.4662 13L 54.4662 17ZM 64.35 4.936L 64.35 17L 61.214 17L 61.214 4.936L 64.35 4.936ZM 68.6462 10.968C 68.6462 11.448 68.7369 11.8907 68.9182 12.296C 69.0996 12.7013 69.3449 13.0533 69.6542 13.352C 69.9636 13.6507 70.3209 13.8853 70.7262 14.056C 71.1422 14.216 71.5796 14.296 72.0382 14.296C 72.4969 14.296 72.9289 14.216 73.3342 14.056C 73.7502 13.8853 74.1129 13.6507 74.4222 13.352C 74.7422 13.0533 74.9929 12.7013 75.1742 12.296C 75.3556 11.8907 75.4462 11.448 75.4462 10.968C 75.4462 10.488 75.3556 10.0453 75.1742 9.64C 74.9929 9.23467 74.7422 8.88267 74.4222 8.584C 74.1129 8.28533 73.7502 8.056 73.3342 7.896C 72.9289 7.72533 72.4969 7.64 72.0382 7.64C 71.5796 7.64 71.1422 7.72533 70.7262 7.896C 70.3209 8.056 69.9636 8.28533 69.6542 8.584C 69.3449 8.88267 69.0996 9.23467 68.9182 9.64C 68.7369 10.0453 68.6462 10.488 68.6462 10.968ZM 65.3662 10.968C 65.3662 10.072 65.5316 9.24 65.8622 8.472C 66.1929 7.69333 66.6516 7.016 67.2382 6.44C 67.8249 5.864 68.5236 5.416 69.3342 5.096C 70.1556 4.76533 71.0569 4.6 72.0382 4.6C 73.0089 4.6 73.9049 4.76533 74.7262 5.096C 75.5476 5.416 76.2516 5.864 76.8382 6.44C 77.4356 7.016 77.8996 7.69333 78.2302 8.472C 78.5609 9.24 78.7262 10.072 78.7262 10.968C 78.7262 11.864 78.5609 12.7013 78.2302 13.48C 77.8996 14.248 77.4356 14.92 76.8382 15.496C 76.2516 16.072 75.5476 16.5253 74.7262 16.856C 73.9049 17.176 73.0089 17.336 72.0382 17.336C 71.0569 17.336 70.1556 17.176 69.3342 16.856C 68.5236 16.5253 67.8249 16.072 67.2382 15.496C 66.6516 14.92 66.1929 14.248 65.8622 13.48C 65.5316 12.7013 65.3662 11.864 65.3662 10.968ZM 79.7471 17L 79.7471 4.936L 82.8831 4.936L 88.6751 12.312L 88.6751 4.936L 91.7951 4.936L 91.7951 17L 88.6751 17L 82.8831 9.624L 82.8831 17L 79.7471 17ZM 99.9892 8.024C 99.6479 7.74667 99.3066 7.544 98.9652 7.416C 98.6239 7.27733 98.2932 7.208 97.9732 7.208C 97.5679 7.208 97.2372 7.304 96.9812 7.496C 96.7252 7.688 96.5972 7.93867 96.5972 8.248C 96.5972 8.46133 96.6612 8.63733 96.7892 8.776C 96.9172 8.91467 97.0826 9.03733 97.2852 9.144C 97.4986 9.24 97.7332 9.32533 97.9892 9.4C 98.2559 9.47467 98.5172 9.55467 98.7732 9.64C 99.7972 9.98133 100.544 10.44 101.013 11.016C 101.493 11.5813 101.733 12.3227 101.733 13.24C 101.733 13.8587 101.627 14.4187 101.413 14.92C 101.211 15.4213 100.907 15.8533 100.501 16.216C 100.107 16.568 99.6159 16.84 99.0292 17.032C 98.4532 17.2347 97.7972 17.336 97.0612 17.336C 95.5359 17.336 94.1226 16.8827 92.8212 15.976L 94.1652 13.448C 94.6346 13.864 95.0986 14.1733 95.5572 14.376C 96.0159 14.5787 96.4692 14.68 96.9172 14.68C 97.4292 14.68 97.8079 14.5627 98.0532 14.328C 98.3092 14.0933 98.4372 13.8267 98.4372 13.528C 98.4372 13.3467 98.4052 13.192 98.3412 13.064C 98.2772 12.9253 98.1706 12.8027 98.0212 12.696C 97.8719 12.5787 97.6746 12.472 97.4292 12.376C 97.1946 12.28 96.9066 12.1733 96.5652 12.056C 96.1599 11.928 95.7599 11.7893 95.3652 11.64C 94.9812 11.48 94.6346 11.272 94.3252 11.016C 94.0266 10.76 93.7812 10.44 93.5892 10.056C 93.4079 9.66133 93.3172 9.16533 93.3172 8.568C 93.3172 7.97067 93.4132 7.432 93.6052 6.952C 93.8079 6.46133 94.0852 6.04533 94.4372 5.704C 94.7999 5.352 95.2372 5.08 95.7492 4.888C 96.2719 4.696 96.8532 4.6 97.4932 4.6C 98.0906 4.6 98.7146 4.68533 99.3652 4.856C 100.016 5.016 100.64 5.256 101.237 5.576L 99.9892 8.024ZM 105.885 9.592L 110.413 9.592L 110.413 4.936L 113.549 4.936L 113.549 17L 110.413 17L 110.413 12.024L 105.885 12.024L 105.885 17L 102.749 17L 102.749 4.936L 105.885 4.936L 105.885 9.592ZM 118.253 4.936L 118.253 17L 115.117 17L 115.117 4.936L 118.253 4.936ZM 122.949 10.472L 123.989 10.472C 125.141 10.472 125.717 9.97067 125.717 8.968C 125.717 7.96533 125.141 7.464 123.989 7.464L 122.949 7.464L 122.949 10.472ZM 122.949 17L 119.813 17L 119.813 4.936L 124.805 4.936C 126.16 4.936 127.195 5.288 127.909 5.992C 128.635 6.696 128.997 7.688 128.997 8.968C 128.997 10.248 128.635 11.24 127.909 11.944C 127.195 12.648 126.16 13 124.805 13L 122.949 13L 122.949 17ZM 7.888 25.024C 7.54667 24.7467 7.20533 24.544 6.864 24.416C 6.52267 24.2773 6.192 24.208 5.872 24.208C 5.46667 24.208 5.136 24.304 4.88 24.496C 4.624 24.688 4.496 24.9387 4.496 25.248C 4.496 25.4613 4.56 25.6373 4.688 25.776C 4.816 25.9147 4.98133 26.0373 5.184 26.144C 5.39733 26.24 5.632 26.3253 5.888 26.4C 6.15467 26.4747 6.416 26.5547 6.672 26.64C 7.696 26.9813 8.44267 27.44 8.912 28.016C 9.392 28.5813 9.632 29.3227 9.632 30.24C 9.632 30.8587 9.52533 31.4187 9.312 31.92C 9.10933 32.4213 8.80533 32.8533 8.4 33.216C 8.00533 33.568 7.51467 33.84 6.928 34.032C 6.352 34.2347 5.696 34.336 4.96 34.336C 3.43467 34.336 2.02133 33.8827 0.72 32.976L 2.064 30.448C 2.53333 30.864 2.99733 31.1733 3.456 31.376C 3.91467 31.5787 4.368 31.68 4.816 31.68C 5.328 31.68 5.70667 31.5627 5.952 31.328C 6.208 31.0933 6.336 30.8267 6.336 30.528C 6.336 30.3467 6.304 30.192 6.24 30.064C 6.176 29.9253 6.06933 29.8027 5.92 29.696C 5.77067 29.5787 5.57333 29.472 5.328 29.376C 5.09333 29.28 4.80533 29.1733 4.464 29.056C 4.05867 28.928 3.65867 28.7893 3.264 28.64C 2.88 28.48 2.53333 28.272 2.224 28.016C 1.92533 27.76 1.68 27.44 1.488 27.056C 1.30667 26.6613 1.216 26.1653 1.216 25.568C 1.216 24.9707 1.312 24.432 1.504 23.952C 1.70667 23.4613 1.984 23.0453 2.336 22.704C 2.69867 22.352 3.136 22.08 3.648 21.888C 4.17067 21.696 4.752 21.6 5.392 21.6C 5.98933 21.6 6.61333 21.6853 7.264 21.856C 7.91467 22.016 8.53867 22.256 9.136 22.576L 7.888 25.024ZM 16.989 29.52L 15.581 25.504L 14.173 29.52L 16.989 29.52ZM 17.821 31.904L 13.341 31.904L 12.621 34L 9.277 34L 13.869 21.936L 17.293 21.936L 21.885 34L 18.541 34L 17.821 31.904ZM 25.4331 27.472L 26.4731 27.472C 27.6251 27.472 28.2011 26.9707 28.2011 25.968C 28.2011 24.9653 27.6251 24.464 26.4731 24.464L 25.4331 24.464L 25.4331 27.472ZM 25.4331 34L 22.2971 34L 22.2971 21.936L 27.2891 21.936C 28.6438 21.936 29.6785 22.288 30.3931 22.992C 31.1185 23.696 31.4811 24.688 31.4811 25.968C 31.4811 27.248 31.1185 28.24 30.3931 28.944C 29.6785 29.648 28.6438 30 27.2891 30L 25.4331 30L 25.4331 34ZM 35.3169 27.472L 36.3569 27.472C 37.5089 27.472 38.0849 26.9707 38.0849 25.968C 38.0849 24.9653 37.5089 24.464 36.3569 24.464L 35.3169 24.464L 35.3169 27.472ZM 35.3169 34L 32.1809 34L 32.1809 21.936L 37.1729 21.936C 38.5275 21.936 39.5622 22.288 40.2769 22.992C 41.0022 23.696 41.3649 24.688 41.3649 25.968C 41.3649 27.248 41.0022 28.24 40.2769 28.944C 39.5622 29.648 38.5275 30 37.1729 30L 35.3169 30L 35.3169 34ZM 45.2006 21.936L 45.2006 34L 42.0646 34L 42.0646 21.936L 45.2006 21.936ZM 52.6329 27.248L 58.8569 27.248C 58.8569 27.888 58.8302 28.4693 58.7769 28.992C 58.7235 29.5147 58.6169 30 58.4569 30.448C 58.2329 31.0773 57.9289 31.6373 57.5449 32.128C 57.1609 32.608 56.7075 33.0133 56.1849 33.344C 55.6729 33.664 55.1075 33.9093 54.4889 34.08C 53.8702 34.2507 53.2195 34.336 52.5369 34.336C 51.5982 34.336 50.7395 34.1813 49.9609 33.872C 49.1929 33.5627 48.5315 33.1307 47.9769 32.576C 47.4222 32.0107 46.9902 31.3387 46.6809 30.56C 46.3715 29.7707 46.2169 28.9013 46.2169 27.952C 46.2169 27.0133 46.3662 26.1547 46.6649 25.376C 46.9742 24.5867 47.4062 23.9147 47.9609 23.36C 48.5262 22.8053 49.2035 22.3733 49.9929 22.064C 50.7822 21.7547 51.6622 21.6 52.6329 21.6C 53.8915 21.6 54.9955 21.872 55.9449 22.416C 56.8942 22.96 57.6462 23.8027 58.2009 24.944L 55.2249 26.176C 54.9475 25.5147 54.5849 25.04 54.1369 24.752C 53.6995 24.464 53.1982 24.32 52.6329 24.32C 52.1635 24.32 51.7369 24.4107 51.3529 24.592C 50.9689 24.7627 50.6382 25.0133 50.3609 25.344C 50.0942 25.664 49.8809 26.0533 49.7209 26.512C 49.5715 26.9707 49.4969 27.4827 49.4969 28.048C 49.4969 28.56 49.5609 29.0347 49.6889 29.472C 49.8275 29.9093 50.0302 30.288 50.2969 30.608C 50.5635 30.928 50.8942 31.1787 51.2889 31.36C 51.6835 31.5307 52.1422 31.616 52.6649 31.616C 52.9742 31.616 53.2729 31.584 53.5609 31.52C 53.8489 31.4453 54.1049 31.3333 54.3289 31.184C 54.5635 31.024 54.7555 30.8213 54.9049 30.576C 55.0542 30.3307 55.1555 30.032 55.2089 29.68L 52.6329 29.68L 52.6329 27.248ZM 66.743 24.592L 63.015 24.592L 63.015 26.608L 66.535 26.608L 66.535 29.264L 63.015 29.264L 63.015 31.344L 66.743 31.344L 66.743 34L 59.879 34L 59.879 21.936L 66.743 21.936L 66.743 24.592ZM 71.9775 34L 74.0255 21.936L 77.1295 21.936L 79.5455 28.368L 81.9455 21.936L 85.0495 21.936L 87.0975 34L 83.9775 34L 82.9375 27.056L 80.0895 34L 78.8415 34L 76.1375 27.056L 75.0975 34L 71.9775 34ZM 94.684 29.52L 93.276 25.504L 91.868 29.52L 94.684 29.52ZM 95.516 31.904L 91.036 31.904L 90.316 34L 86.972 34L 91.564 21.936L 94.988 21.936L 99.58 34L 96.236 34L 95.516 31.904ZM 99.9921 34L 99.9921 21.936L 103.128 21.936L 108.92 29.312L 108.92 21.936L 112.04 21.936L 112.04 34L 108.92 34L 103.128 26.624L 103.128 34L 99.9921 34ZM 113.61 34L 113.61 21.936L 116.746 21.936L 122.538 29.312L 122.538 21.936L 125.658 21.936L 125.658 34L 122.538 34L 116.746 26.624L 116.746 34L 113.61 34ZM 134.092 24.592L 130.364 24.592L 130.364 26.608L 133.884 26.608L 133.884 29.264L 130.364 29.264L 130.364 31.344L 134.092 31.344L 134.092 34L 127.228 34L 127.228 21.936L 134.092 21.936L 134.092 24.592ZM 139.969 24.592L 139.969 34L 136.833 34L 136.833 24.592L 134.257 24.592L 134.257 21.936L 142.545 21.936L 142.545 24.592L 139.969 24.592ZM 148.229 21.936L 148.229 30.304C 148.229 30.656 148.207 30.9813 148.165 31.28C 148.133 31.5787 148.074 31.8347 147.989 32.048C 147.85 32.3893 147.658 32.704 147.413 32.992C 147.178 33.2693 146.901 33.5093 146.581 33.712C 146.261 33.904 145.903 34.0533 145.509 34.16C 145.125 34.2773 144.719 34.336 144.293 34.336C 143.002 34.336 141.951 33.744 141.141 32.56L 143.189 30.464C 143.242 30.8267 143.359 31.1147 143.541 31.328C 143.722 31.5413 143.946 31.648 144.213 31.648C 144.799 31.648 145.093 31.184 145.093 30.256L 145.093 21.936L 148.229 21.936ZM 156.681 24.592L 152.953 24.592L 152.953 26.608L 156.473 26.608L 156.473 29.264L 152.953 29.264L 152.953 31.344L 156.681 31.344L 156.681 34L 149.817 34L 149.817 21.936L 156.681 21.936L 156.681 24.592ZM 164.606 25.024C 164.265 24.7467 163.923 24.544 163.582 24.416C 163.241 24.2773 162.91 24.208 162.59 24.208C 162.185 24.208 161.854 24.304 161.598 24.496C 161.342 24.688 161.214 24.9387 161.214 25.248C 161.214 25.4613 161.278 25.6373 161.406 25.776C 161.534 25.9147 161.699 26.0373 161.902 26.144C 162.115 26.24 162.35 26.3253 162.606 26.4C 162.873 26.4747 163.134 26.5547 163.39 26.64C 164.414 26.9813 165.161 27.44 165.63 28.016C 166.11 28.5813 166.35 29.3227 166.35 30.24C 166.35 30.8587 166.243 31.4187 166.03 31.92C 165.827 32.4213 165.523 32.8533 165.118 33.216C 164.723 33.568 164.233 33.84 163.646 34.032C 163.07 34.2347 162.414 34.336 161.678 34.336C 160.153 34.336 158.739 33.8827 157.438 32.976L 158.782 30.448C 159.251 30.864 159.715 31.1733 160.174 31.376C 160.633 31.5787 161.086 31.68 161.534 31.68C 162.046 31.68 162.425 31.5627 162.67 31.328C 162.926 31.0933 163.054 30.8267 163.054 30.528C 163.054 30.3467 163.022 30.192 162.958 30.064C 162.894 29.9253 162.787 29.8027 162.638 29.696C 162.489 29.5787 162.291 29.472 162.046 29.376C 161.811 29.28 161.523 29.1733 161.182 29.056C 160.777 28.928 160.377 28.7893 159.982 28.64C 159.598 28.48 159.251 28.272 158.942 28.016C 158.643 27.76 158.398 27.44 158.206 27.056C 158.025 26.6613 157.934 26.1653 157.934 25.568C 157.934 24.9707 158.03 24.432 158.222 23.952C 158.425 23.4613 158.702 23.0453 159.054 22.704C 159.417 22.352 159.854 22.08 160.366 21.888C 160.889 21.696 161.47 21.6 162.11 21.6C 162.707 21.6 163.331 21.6853 163.982 21.856C 164.633 22.016 165.257 22.256 165.854 22.576L 164.606 25.024Z"/>
<path id="path2_fill" d="M 22.8 16.5C 22.8 16.5 24.1 16.6 25.2 18L 24.6 18.1L 24.3 18C 24.3 18 23.4 16.9 22.8 16.5L 22.8 16.5ZM 20.8 22.7L 20.2 21.2L 20 21.2L 19 22.4C 19.7 23 20.8 22.7 20.8 22.7ZM 30 13.9L 29.5 14.1L 30.1 15.2L 32.1 15.9C 31.3 14.2 30 13.9 30 13.9L 30 13.9ZM 24.3 16C 24.9 16.7 25.5 17.7 25.5 17.7C 26.5 16.7 28.6 16.3 31.3 16.4C 27.5 15.6 24.3 16 24.3 16L 24.3 16ZM 20.6 14.5C 20.6 14.5 21.7 14.5 23.2 14.8C 22.2 14.1 20.6 13.7 20.6 13.7L 20.6 14.5L 20.6 14.5ZM 29.8 20L 28.1 21.5L 29.4 21.9L 30.7 20.5L 30 20.2L 29.8 20L 29.8 20ZM 18.5 12.1C 18.5 12.1 19.2 12.5 19.3 12.5C 19.4 12.5 20.8 13 21.4 13.2C 21.9 13.4 22.2 13.2 22.3 13.2C 22.4 13.2 24.1 12.2 24.1 12.2C 22.6 11.6 21.2 11.2 21.2 11.2C 21.1 11.2 18.5 12.1 18.5 12.1L 18.5 12.1ZM 28.7 13C 28.6 12.8 28.4 12.8 27.2 12.6C 26.1 12.5 25.1 12.4 24.9 12.4C 24.7 12.4 24.6 12.5 24.6 12.5C 24.6 12.5 24 12.9 23.5 13.2C 23 13.5 22.9 13.6 22.8 13.8C 22.7 13.9 23 14.3 23 14.3L 23.8 15.3C 23.9 15.3 24.2 15.5 24.2 15.5C 24.2 15.5 25.8 15.4 26.8 15.3L 29.4 15.3C 29.5 15.3 29.4 14.9 29.2 14.4C 29 14 28.7 13 28.7 13L 28.7 13ZM 19.2 14.1C 19.2 14.1 19.3 14.1 19.5 14.2C 19.7 14.2 19.8 14 19.8 13.8C 19.8 13.5 19.5 13.4 19.5 13.4L 19.3 13.4L 19 13.5L 18.9 14.2L 19 14.2L 19.2 14.1C 19.1 13.9 19.1 13.8 19.1 13.6C 19.1 13.5 19.3 13.3 19.4 13.3C 19.4 13.3 19.6 13.3 19.5 13.7C 19.5 14.1 19.2 14.1 19.2 14.1L 19.2 14.1ZM 36.1 22L 35.3 23.1L 35.3 23.2L 36.4 23.2C 36.6 22.5 36.1 22 36.1 22ZM 16.1 16.8L 15.9 16.8L 15.4 16.7C 14.9 16.6 15.1 15.7 15.1 15.7L 14.5 15.9C 14.3 15.5 13.4 14.4 13.4 14.4L 13.2 15.2C 13.3 15.3 13.8 16.1 13.9 16.3L 13.6 16.6C 13.6 16.6 13.5 16.8 13.5 16.9C 13.5 17 13.4 17.1 13.4 17.1L 13 17.3L 12.9 17.3L 11.5 16.2L 11.5 17L 11.6 17C 11.7 17.2 11.9 17.6 12.4 17.8C 12.8 18 13.3 18 13.5 17.9C 13.7 18 13.8 18 13.9 18.1C 14.3 18.3 14.4 18.2 14.4 18.2L 15 18L 15.1 18L 15.2 17.9L 15.4 17.5C 15.4 17.5 16.4 17.6 16.8 17.6C 17.2 17 18.5 16.1 19.4 16C 20.3 16 21.8 16.2 23 17.4C 24.1 18.6 23.8 20.2 23.8 20.2L 26 20.9L 25 20.2C 24.2 18.2 22.3 16.4 22.3 16.4C 22.3 16.4 21.8 16.3 21.5 16.3C 21.2 16.2 21 16 21 16C 21 16 20.9 15.9 20.7 15.6L 20.5 15.2C 20.5 15.2 20.3 15 20 14.8C 19.7 14.6 18.6 14.5 18 14.4C 17.4 14.3 17.4 14.4 17.4 14.4C 19.1 14.8 19.6 14.9 19.7 15C 19.7 15 19.8 15.2 19.9 15.3C 18.5 15 17.2 15.2 16.9 15.3C 17.1 15.6 17.1 16 16.9 16.3C 16.7 16.5 16.1 16.8 16.1 16.8L 16.1 16.8ZM 35.1 24L 35.4 25.3C 35.4 25.3 35.7 25 36 24.6C 36.3 24.2 36.4 23.8 36.4 23.8L 35.2 23.9L 35.1 24ZM 11 14.9L 10.9 16L 11.5 16L 11.6 15.3L 11.6 15.7L 11.7 15.7L 11.7 15.1L 11.6 15.1L 11.6 14.7L 12.5 15.2L 12.6 15.4L 12.8 15.6L 13 15.6L 13.1 15.5L 13.1 15.4C 12.5 15.4 12.5 15.1 12.5 15.1C 12.5 15.1 12.6 14.4 12.7 14.2C 12.8 14 13.2 14.1 13.2 14.1L 13.1 14L 12.9 14C 12.7 13.9 12.1 13.5 11.9 13.4L 11.9 13.3L 12 13.2L 12 12.8L 12.1 12.8C 12.1 12.7 12.2 12.7 12.2 12.6C 12.4 12.6 13.9 12.3 13.9 12.3L 12.5 12L 12.5 11.9C 12.1 11.8 11.8 11.7 11.6 11.6C 11.1 12.2 10.9 13 10.9 13C 10.9 13 10.8 14.4 10.8 14.6C 10.7 14.8 11 14.9 11 14.9L 11 14.9ZM 34.5 22.8L 34.7 23.1L 34.8 23L 35.6 22L 35.6 21.9C 35.2 21.9 34.5 22.8 34.5 22.8L 34.5 22.8ZM 32.1 21L 31.5 20.8L 30.1 22.4L 31.1 22.7C 31.3 21.9 32.1 21 32.1 21L 32.1 21ZM 34.2 23.3C 33.7 24.3 33.8 25 33.8 25L 34.3 23.9L 34.3 23.7C 34.4 23.7 34.3 23.5 34.2 23.3ZM 33.7 16.8C 33.7 16.8 33.5 17.2 33.4 17.3C 33.3 17.4 32.6 17.5 32.2 17.6C 31.8 17.8 31.1 18.1 30.9 18.3C 30.8 18.4 30.8 18.7 30.8 18.8C 30.8 18.8 31 18.9 31.1 18.9L 30.2 19.7L 30.4 19.9L 32.6 20.6C 33.1 20.2 33.8 20.1 33.8 20.1C 33.4 19.9 31.7 19.2 31.2 19C 31.2 19 30.9 18.9 30.9 18.8L 30.9 18.5C 30.9 18.5 32.2 17.5 34.2 17.5L 34.5 16.9L 33.7 16.8L 33.7 16.8ZM 35 25.6L 34.6 24.4L 34.5 24.4L 33.9 25.5L 34 25.6C 34.5 25.8 35 25.6 35 25.6ZM 19.9 14.2L 20.2 14.3C 20.2 14.3 20.4 14.3 20.4 14.1L 20.4 13.7L 20.1 13.5L 19.7 13.4C 19.8 13.5 19.8 13.6 19.8 13.6L 19.9 13.6C 19.9 13.5 20 13.5 20 13.6C 20 13.6 20.2 13.7 20.1 14C 20.2 14.1 20 14.2 19.9 14.2L 19.9 14.2ZM 19 19.7C 18.3 21 18.8 21.9 18.8 21.9L 19.7 20.6L 19.7 20.4L 19 19.7ZM 12.5 12L 13.7 12.3C 13.8 12.3 14.5 12.2 14.5 12.2L 12.6 11.7L 12.5 12L 12.5 12ZM 13.2 11.7C 14.8 11.9 15.1 12.2 15.1 12.2C 15.1 12.2 15.7 12.1 16 12.1C 15.5 11.7 13.3 11 13.3 11C 13.3 11 13.2 11.3 13.2 11.7L 13.2 11.7ZM 15.6 14.8C 15.3 15 15 15.6 15.1 16.1C 15.2 16.6 15.3 16.6 15.6 16.6C 15.1 16.4 15.2 15.6 15.6 15.1C 15.9 14.7 16.2 15 16.2 15C 16.2 15 15.9 14.6 15.6 14.8L 15.6 14.8ZM 8.5 29.6C 7.2 29.6 5.7 30.1 6.6 31.5C 14 44.2 21.8 47.2 25.1 48.8C 26.6 48.1 29 47 31.9 45C 33.6 43.9 33.4 42.2 33 41.1C 30.9 35.9 19.4 30 8.5 29.6L 8.5 29.6ZM 50.2 5.9C 47.2 3.8 39.8 7.62939e-07 25.1 7.62939e-07C 20 7.62939e-07 15.7 0.5 12.3 1.2C 13.1 2.5 13.5 4 13.5 5.6C 13.5 7.8 12.7 9.8 11.4 11.3C 11.7 11.4 12.1 11.5 12.6 11.6L 12.8 11.1C 12.8 11.1 13 11.1 13.1 11.2C 13.1 10.7 13.4 10.7 13.4 10.7C 13.4 10.7 13.4 10.6 13.5 10.6C 14 10.7 15.4 11.4 16 11.7C 16.6 12 16.6 12.1 16.6 12.1C 16.6 12.1 18 12.1 18.4 12C 18.8 12 19.5 11.7 20.5 11.4C 21.5 11.1 21.7 11 21.9 11C 22.1 11 23.9 11.1 25.5 11.3C 27.1 11.5 28.6 12.1 28.9 12.3L 29.4 12.4L 29.5 12.1L 28.7 11.8C 28.7 11.8 28.8 11.3 28.8 11.2C 28.8 11.1 28.9 11 29 11C 29.1 11 30 11.2 30.3 11.3C 30.6 11.4 31.6 12.1 31.7 12.1C 31.8 12.1 31.8 12.2 31.8 12.2C 31.8 12.4 31.6 12.8 31.6 12.8L 31.3 12.7L 31.6 12.8C 31.6 12.8 31.9 12.9 32 13C 32.1 13.1 32.4 13.3 32.7 13.6C 33 13.8 32.9 14.1 32.9 14.1L 33.6 14.8L 33.6 15.1L 35.3 16.8L 35.3 16.9L 34.5 17.4C 34.5 17.4 35.6 17.3 36.4 17.7C 37.2 18.1 37.3 18.3 37.3 18.5C 37.1 18.6 36.8 18.7 36.8 18.7C 36.2 18.9 34.7 19.9 34.7 19.9L 34.7 20L 35.5 20.2C 36.4 19.4 38 19.1 39.2 19.3C 43.3 20.1 46.1 22.8 46.7 25.1C 46.7 25.2 46.8 25.4 46.8 25.5C 50.9 15.9 50.5 9 50.2 5.9L 50.2 5.9ZM 35.8 20.5C 35.9 20.6 36 20.6 36.1 20.7C 36.7 21.1 37 21.3 37.1 22.2C 37.2 22.9 37 23.9 36.5 24.8C 39.3 26.7 43.2 25.2 44.7 26.7C 44.4 22.9 38.8 19.1 35.8 20.5ZM 12.8 15.6L 12.6 15.7L 12.6 16.5L 12.8 16.4L 12.8 15.6ZM 41.7 28C 39.6 28 37.5 27.3 36 25.5L 36 25.6C 35.1 26.8 34.1 26.8 33.7 26.8C 33.3 26.8 32 26.2 31.5 25.6C 31 25 31 23.9 31 23.9L 29 23.2L 26.5 21.8L 26.1 21.7C 25.3 22.1 24.3 21.8 23.4 21.1C 23.3 21.5 22.8 22.5 22.2 23C 21.6 23.5 20.4 24.2 19.5 24.2C 18.6 24.2 16.6 23.2 16 21.8C 15.4 20.4 16 18.9 16 18.9L 15 18.7L 14.6 18.2C 14.6 18.2 13.4 19.2 12.1 18.8C 10.8 18.4 9.7 17.3 9.4 16.3C 9.2 15.3 9.5 14.4 9.6 14.3C 9.4 13.6 9.4 13.2 9.4 13.2L 9.3 13.2L 9.3 12.9C 8 13.8 6.5 14.2 4.9 14.2C 3.1 14.2 1.4 13.6 4.26326e-14 12.7C 0.2 14.9 0.799998 17.5 1.6 20.4C 2.7 24.4 6.3 25.7 11.7 26.6C 23.6 28.5 35 37.6 34.2 43.2C 37.2 40.7 40.4 37 43.6 31.5C 44.9 29.4 43.7 28 41.7 28L 41.7 28ZM 9.9 14.2L 9.8 15.3L 10.5 15.3L 10.5 15.2L 10.4 15.2L 10.4 15.1L 10.3 15.1L 10.4 14.9L 10.5 14.4L 10.4 14.3L 10.4 14.1L 10.5 14L 10.6 12.8L 10.1 12.5C 10.3 11.7 10.8 11 10.8 11L 10.5 11C 10 11.6 9.8 12.4 9.8 12.4C 9.8 12.4 9.7 13.7 9.7 13.9C 9.7 14.2 9.9 14.2 9.9 14.2L 9.9 14.2ZM 20.9 20.9L 21.4 22.5C 22.4 21.8 22.6 20.7 22.6 20.7L 21 20.8L 20.9 20.9L 20.9 20.9ZM 21.8 18.4L 21 19.8L 21.1 19.9L 22.7 20C 22.7 18.9 21.8 18.4 21.8 18.4L 21.8 18.4ZM 11.8 15.3L 11.7 15.9L 11.8 15.9L 11.8 15.3ZM 19.4 19.1L 20.2 19.7L 20.4 19.6L 21.3 18.2C 20.2 18.1 19.4 19.1 19.4 19.1ZM 12 15.4L 11.9 15.3L 11.9 16L 12 16L 12 15.4ZM 12.3 15.6L 12.2 16.3L 12.3 16.3L 12.3 15.6ZM 12.5 15.7L 12.4 16.4L 12.5 16.4L 12.5 15.7ZM 12.1 15.5L 12 16.2L 12.1 16.2L 12.1 15.5Z"/>
<path id="path3_fill" d="M 54.6 18.1L 48.7 18.1L 48.7 0.399999L 54.6 0.399999L 54.6 6.3L 58.2 0.399999L 64.8 0.399999L 58.9 9.3L 64.8 18.2L 58.2 18.2L 54.6 12.3L 54.6 18.1ZM 88.4 5L 91.7 5L 91.7 0.399999L 79.2 0.399999L 79.2 5L 82.5 5L 82.5 18.1L 88.4 18.1L 88.4 5L 88.4 5ZM 77.9 13.5L 71.3 13.5L 71.3 11.5L 76.5 11.5L 76.5 7L 71.3 7L 71.3 5L 77.9 5L 77.9 0.399999L 65.4 0.399999L 65.4 18.1L 77.9 18.1L 77.9 13.5ZM 12.5 32.6L 5.90001 32.6L 5.90001 19.4L -3.05176e-06 19.4L -3.05176e-06 37.1L 12.5 37.1L 12.5 32.6ZM 26.3 32.6L 19.7 32.6L 19.7 30.6L 24.9 30.6L 24.9 26L 19.7 26L 19.7 24L 26.3 24L 26.3 19.4L 13.8 19.4L 13.8 37.1L 26.3 37.1L 26.3 32.6L 26.3 32.6ZM 91.7 32.6L 85.1 32.6L 85.1 30.6L 90.3 30.6L 90.3 26L 85.1 26L 85.1 24L 91.7 24L 91.7 19.4L 79.2 19.4L 79.2 37.1L 91.7 37.1L 91.7 32.6ZM 34.2 9.3C 34.2 14.4 30.1 18.5 25 18.5C 19.9 18.5 15.8 14.4 15.8 9.3C 15.8 4.2 19.9 0.1 25 0.1C 30.1 0.1 34.2 4.2 34.2 9.3ZM 28.3 9.3C 28.3 7.5 26.8 6 25 6C 23.2 6 21.7 7.5 21.7 9.3C 21.7 11.1 23.2 12.6 25 12.6C 26.8 12.6 28.3 11.1 28.3 9.3ZM 72 29.6C 72 30.7 71.1 31.6 70 31.6C 68.9 31.6 68 30.7 68 29.6L 68 19.4L 62.1 19.4L 62.1 29.6C 62.1 33.9 65.6 37.5 70 37.5C 74.3 37.5 77.9 34 77.9 29.6L 77.9 19.4L 72 19.4L 72 29.6ZM 47.4 11.2C 46.8 12 45.2 12.5 44.1 12.5C 42.3 12.5 40.8 11 40.8 9.2C 40.8 7.4 42.3 5.9 44.1 5.9C 45.2 5.9 46.8 6.4 47.4 7.2L 47.4 0.399999C 46.6 0.199999 45 -3.8147e-07 44.1 -3.8147e-07C 39 -3.8147e-07 34.9 4.1 34.9 9.2C 34.9 14.3 39 18.4 44.1 18.4C 45 18.4 46.5 18.3 47.4 18L 47.4 11.2L 47.4 11.2ZM 15.1 6C 15.1 8.5 13.8 10.7 11.6 11.1L 16.1 18.1L 9.5 18.1L 5.90001 12.2L 5.90001 18.1L -3.05176e-06 18.1L -3.05176e-06 0.399999L 9.19999 0.399999C 12.5 0.399999 15.1 2.7 15.1 6ZM 9.19999 7C 9.19999 5.9 8.29999 5 7.19999 5L 5.90001 5L 5.90001 8.9L 7.19999 8.9C 8.29999 8.9 9.19999 8.1 9.19999 7ZM 38.1 34.5L 33.5 34.5L 32.9 37.1L 27 37.1L 32.9 19.4L 38.8 19.4L 44.7 37.1L 38.8 37.1L 38.1 34.5L 38.1 34.5ZM 37 29.9L 35.8 24.9L 34.6 29.9L 37 29.9L 37 29.9ZM 61 26.7L 52.5 26.7L 52.5 31L 55.2 31C 54.9 31.6 54.3 32.6 52.5 32.6C 50.5 32.6 48.9 30.9 48.9 28.7C 48.9 26.3 50.7 24.9 52.5 24.8C 54.5 24.7 55.3 25.5 55.9 26.1L 60 22.2C 58 20.2 55.7 19.2 52.5 19.2C 47.4 19.2 43.3 23.3 43.3 28.4C 43.3 33.5 47.4 37.6 52.5 37.6C 57.8 37.6 61 33.8 61 29.1L 61 26.7Z"/>
<path id="path4_fill" d="M 56.4 8.7L 56.3 7.6L 55.3 6.9C 51.1 4 43.1 0.599999 28.8 0.599999C 23.4 0.599999 18.5 1.1 14.2 2.1C 12.7 0.799999 10.7 7.62939e-07 8.6 7.62939e-07C 3.9 7.62939e-07 -3.05176e-06 3.8 -3.05176e-06 8.6C -3.05176e-06 10.1 0.400003 11.5 1.1 12.8C 1.3 20.2 3.6 27.9 8.1 35.7C 15.5 48.2 23.4 51.9 27.2 53.6C 27.5 53.7 27.7 53.8 27.9 53.9L 28.9 54.4L 29.9 53.9C 30.1 53.8 30.4 53.7 30.6 53.6C 34.5 51.9 42.3 48.2 49.5 35.7C 57.4 22 56.7 12 56.4 8.7L 56.4 8.7Z"/>
<path id="path5_fill" d="M 25.1 -1.52588e-06C 25.4 3.7 25.9 12.8 18.5 25.6C 11.2 38.3 3.3 41.3 -1.52588e-06 42.9L -1.52588e-06 41C 6.1 37.7 11.4 32.4 15.6 24C 20.5 14.3 21.1 6.4 20.7 2.4L 25.1 -1.52588e-06L 25.1 -1.52588e-06Z"/>
<path id="path6_fill" d="M 37.9 5.9C 34.9 3.8 27.5 7.62939e-07 12.8 7.62939e-07C 7.7 7.62939e-07 3.4 0.5 3.05176e-06 1.2C 0.700003 2.3 1.1 3.6 1.2 5C 5 4.3 9.1 3.9 13.5 4C 22.9 4.1 30.5 6.2 33.6 8.3L 37.9 5.9"/>
<path id="path7_fill" d="M 6.2 12.4C 9.62417 12.4 12.4 9.62416 12.4 6.2C 12.4 2.77583 9.62417 0 6.2 0C 2.77584 0 -3.05176e-06 2.77583 -3.05176e-06 6.2C -3.05176e-06 9.62416 2.77584 12.4 6.2 12.4Z"/>
</defs>
</svg>
